<?xml version="1.0" encoding="UTF-8"?>
<svg viewBox="0 0 1000 500" xmlns="http://www.w3.org/2000/svg">

  <!-- America do Norte -->
  <polygon id="America do Norte" points="50,80 250,80 230,200 150,250 80,180" />

  <!-- America do Sul -->
  <polygon id="America do Sul" points="200,250 300,260 280,450 220,450" />

  <!-- Europa -->
  <polygon id="Europa" points="400,80 500,80 480,150 420,150" />

  <!-- Africa -->
  <polygon id="Africa" points="420,150 520,150 500,350 440,350" />

  <!-- Asia -->
  <polygon id="Asia" points="500,50 900,80 850,300 650,320 550,200" />

  <!-- Oceania -->
  <polygon id="Oceania" points="800,320 950,320 920,450 780,450" />

  <!-- Antartida -->
  <polygon id="Antartida" points="0,450 1000,450 1000,500 0,500" />

</svg>
